<?xml version="1.0" encoding="UTF-8" standalone="no"?>
<!-- Generator: Adobe Illustrator 19.0.0, SVG Export Plug-In . SVG Version: 6.00 Build 0)  -->

<svg
   version="1.1"
   id="Layer_1"
   x="0px"
   y="0px"
   viewBox="0 0 960 250"
   xml:space="preserve"
   width="960"
   height="250"
   xmlns="http://www.w3.org/2000/svg"
   xmlns:svg="http://www.w3.org/2000/svg"><defs
   id="defs41" />
<style
   type="text/css"
   id="style2">
	.st0{fill:#FFC436;}
</style>
<g
   id="XMLID_3_"
   transform="translate(-8.5004612,-147.34132)">
	<path
   id="XMLID_4_"
   class="st0"
   d="m 81.6,180.6 c 8.2,-1.3 14.2,-2 18,-2 5.9,0 10.6,1.4 14.2,4.2 3.5,2.8 5.3,6.3 5.3,10.5 0,4.2 -1.9,8.2 -5.6,11.9 -3.7,3.7 -8.4,6.7 -14.1,8.8 -0.7,0.3 -1,0.6 -1,0.9 0,0.5 2.9,2.9 8.7,7.4 5.8,4.5 11.1,8.2 15.9,11.2 1.4,0.8 2.1,1.9 2.1,3.3 0,0.9 -0.5,1.8 -1.4,2.7 -0.9,0.9 -1.8,1.3 -2.6,1.3 -1.7,0 -4.3,-1.4 -7.9,-4.1 -3.6,-2.7 -7.4,-5.8 -11.3,-9.1 -8.4,-7.1 -13.1,-10.7 -14.1,-10.7 -1.9,-0.1 -3.2,-0.3 -4,-0.8 -0.8,-0.5 -1.2,-1.3 -1.2,-2.6 0,-1.1 0.5,-2 1.5,-2.8 1,-0.8 2.2,-1.2 3.6,-1.2 0.5,0 1.2,0.1 2.3,0.2 1,0.2 1.8,0.3 2.3,0.3 2.2,0 6.1,-1.7 11.5,-5 5.4,-3.3 8.1,-7.3 8.1,-11.8 0,-2.4 -1.2,-4.4 -3.6,-6.1 -2.4,-1.7 -5.5,-2.6 -9.3,-2.6 -2.8,0 -5.6,0.2 -8.4,0.6 -2.8,0.4 -4.6,0.7 -5.4,1 -0.8,0.3 -1.4,1 -1.9,2.2 -0.5,1.2 -1.3,4.9 -2.4,11.1 -1.1,6.2 -2,12.1 -2.6,17.7 -0.6,5.6 -0.9,9.6 -0.9,12.2 0,2 0.1,3.8 0.4,5.2 0.3,1.5 0.4,2.7 0.4,3.6 0,0.8 -0.4,1.7 -1.3,2.6 -0.9,0.9 -1.8,1.3 -2.9,1.3 -2.9,0 -4.4,-2.4 -4.4,-7.1 0,-11.2 2,-26.2 5.9,-44.8 0.2,-1 0.3,-1.6 0.3,-1.7 0,-0.1 -0.1,-0.4 -0.3,-0.8 -1.1,-1.8 -1.7,-2.9 -1.7,-3.5 0,-1.1 0.5,-2 1.6,-2.8 1,-0.8 2,-1.2 2.8,-1.2 z" />
	<path
   id="XMLID_6_"
   class="st0"
   d="m 167.4,225.7 c 0,2.9 -2.5,6.3 -7.6,10.3 -5.1,4 -10.3,6 -15.6,6 -4.5,0 -8,-1.3 -10.4,-4 -2.5,-2.7 -3.7,-6.4 -3.7,-11.1 0,-8 2.7,-15.6 8.1,-22.8 5.4,-7.2 11.3,-10.8 17.7,-10.8 2.1,0 3.8,0.7 5.1,2.1 1.3,1.4 2,3 2,5 0,4.3 -2.1,8.4 -6.3,12.4 -4.2,3.9 -9.9,7.8 -17,11.6 -1.5,0.8 -2.2,1.7 -2.2,2.9 0,2.3 0.7,4.2 2,5.6 1.3,1.4 3.3,2.1 6,2.1 6,0 12.2,-3.3 18.4,-10 0.9,-0.9 1.6,-1.4 2.1,-1.4 0.9,-0.1 1.4,0.6 1.4,2.1 z m -29.2,-6.6 c 11.9,-7.1 17.8,-12.7 17.8,-17 0,-1.7 -0.8,-2.5 -2.3,-2.5 -2.6,0 -5.5,1.9 -8.7,5.7 -3.2,3.8 -5.5,8.3 -6.8,13.8 z" />
	<path
   id="XMLID_9_"
   class="st0"
   d="m 184.2,240.4 c 0.1,-1.6 -1.1,-5.8 -3.6,-12.6 -4.6,-12.6 -6.9,-21.4 -6.9,-26.4 0,-3.9 1.3,-5.9 3.9,-5.9 2.6,0 3.9,1.8 3.9,5.3 0,2.9 0.1,5.1 0.3,6.7 0.2,1.6 0.8,4.4 2,8.5 1.1,4.1 2.4,8 3.8,11.5 0.7,1.8 1.2,3.3 1.5,4.2 0.6,-0.9 1.3,-2.1 2.3,-3.7 4.9,-8.3 8.9,-14.7 11.8,-19.1 2.9,-4.5 5.3,-7.7 7.2,-9.8 1.8,-2 3.2,-3.3 4.1,-3.7 0.9,-0.4 1.7,-0.6 2.6,-0.6 1.1,0 2,0.4 2.6,1.2 0.6,0.8 0.9,1.7 0.9,2.7 0,1.3 -1.1,2.7 -3.4,4.3 -2.2,1.5 -5.3,5.1 -9.5,11 -4.2,5.9 -8.7,13.3 -13.6,22.4 -2.5,4.6 -4.4,6.9 -5.8,6.9 -1.3,-0.1 -2.6,-1.1 -4.1,-2.9 z" />
	<path
   id="XMLID_11_"
   class="st0"
   d="m 231.1,230.6 c 0,2.1 0.3,4.5 0.9,7.2 0.1,0.5 0.2,0.9 0.2,1.3 0,0.5 -0.5,1.2 -1.4,2 -0.9,0.8 -1.9,1.2 -2.9,1.2 -2.7,0 -4.1,-2.5 -4.1,-7.5 0,-5.2 1.1,-13.3 3.2,-24.4 0.7,-3.9 1.1,-6.3 1.1,-7.2 0,-1.8 0.3,-3.3 1,-4.5 0.6,-1.2 1.6,-1.9 2.7,-1.9 1.4,0 2.6,0.3 3.4,1 0.8,0.7 1.2,1.4 1.2,2.3 0,0.9 -0.2,1.9 -0.6,3.3 -2.1,7.4 -3.4,12.7 -3.9,15.9 -0.5,3.2 -0.8,6.9 -0.8,11.3 z m 5.5,-46.9 c -0.6,0 -1,-0.6 -1.3,-1.9 -0.1,-0.4 -0.3,-0.8 -0.5,-1.3 -0.8,-1.8 -1.1,-3.4 -1.1,-4.7 0,-1.1 0.7,-2.3 2,-3.4 1.3,-1.2 2.8,-1.7 4.4,-1.7 0.8,0 1.7,0.3 2.7,0.9 1,0.6 1.5,1.2 1.5,1.8 0,0.9 -0.3,2.5 -1,4.7 -0.7,2.2 -1.8,3.7 -3.3,4.5 -1.5,0.7 -2.6,1.1 -3.4,1.1 z" />
	<path
   id="XMLID_14_"
   class="st0"
   d="m 283.9,225.7 c 0,2.9 -2.5,6.3 -7.6,10.3 -5.1,4 -10.3,6 -15.6,6 -4.5,0 -8,-1.3 -10.4,-4 -2.5,-2.7 -3.7,-6.4 -3.7,-11.1 0,-8 2.7,-15.6 8.1,-22.8 5.4,-7.2 11.3,-10.8 17.7,-10.8 2.1,0 3.8,0.7 5.1,2.1 1.3,1.4 2,3 2,5 0,4.3 -2.1,8.4 -6.3,12.4 -4.2,3.9 -9.9,7.8 -17,11.6 -1.5,0.8 -2.2,1.7 -2.2,2.9 0,2.3 0.7,4.2 2,5.6 1.3,1.4 3.3,2.1 6,2.1 6,0 12.2,-3.3 18.4,-10 0.9,-0.9 1.6,-1.4 2.1,-1.4 1,-0.1 1.4,0.6 1.4,2.1 z m -29.2,-6.6 c 11.9,-7.1 17.8,-12.7 17.8,-17 0,-1.7 -0.8,-2.5 -2.3,-2.5 -2.6,0 -5.5,1.9 -8.7,5.7 -3.2,3.8 -5.5,8.3 -6.8,13.8 z" />
	<path
   id="XMLID_17_"
   class="st0"
   d="m 325.9,212.1 c -0.8,0 -2.7,3.3 -5.7,9.8 -2.5,5.3 -5,10.1 -7.6,14.3 -2.6,4.2 -4.5,6.3 -5.7,6.3 -3.5,0 -6.7,-5.2 -9.6,-15.5 -3,-10.3 -4.4,-18.6 -4.4,-24.9 0,-2 0.5,-3.7 1.5,-5.1 1,-1.3 2.2,-2.1 3.6,-2.2 0.2,0 0.5,0 1,0 0.5,0 1.1,0.5 1.8,1.4 0.7,0.9 1.1,1.7 1.1,2.6 v 0.2 c 0,0.3 -0.2,1.7 -0.5,4.2 -0.3,1.8 -0.4,4 -0.4,6.7 0,4.2 0.8,8.8 2.4,13.8 1.6,5 2.9,7.6 4,7.6 0.8,0 3.4,-4.3 7.8,-12.8 2.8,-5.4 4.8,-9.1 6,-11.2 l 1.3,-2.5 c 1.9,-3.7 3.8,-6.2 5.5,-7.6 2.4,0.3 3.6,1.5 3.6,3.6 0,0.7 -0.1,1.3 -0.2,1.8 -0.1,0.5 -0.2,1.1 -0.2,1.8 0,5.2 1.3,10.6 4,16.3 2.7,5.7 4.6,8.5 5.8,8.5 0.8,0 2.2,-3 4,-8.9 2.5,-8.1 4.7,-14.1 6.8,-18.1 2.1,-4 3.6,-6.4 4.6,-7.2 1,-0.8 2.1,-1.1 3.3,-1.1 0.7,0 1.3,0.3 1.8,0.9 0.5,0.6 0.7,1.3 0.7,2 0,1 -0.2,1.8 -0.5,2.1 -3.5,4.6 -6.8,11.7 -10,21.4 -2.7,8.3 -4.6,13.5 -5.6,15.7 -1,2.1 -1.8,3.2 -2.5,3.2 -3.4,0 -6.2,-1.2 -8.3,-3.7 -2.2,-2.5 -5,-9.1 -8.6,-19.8 0,-1.5 -0.4,-2.7 -0.8,-3.6 z" />
	<path
   id="XMLID_19_"
   class="st0"
   d="m 389.6,230.3 c 0,-1.8 -2.2,-3.9 -6.7,-6.2 -5.7,-2.9 -9.5,-5.2 -11.5,-7 -2,-1.7 -3,-3.7 -3,-5.9 0,-5.6 2.8,-10.2 8.4,-13.9 5.6,-3.7 10.1,-5.5 13.7,-5.5 2.3,0 3.9,0.4 4.9,1.2 1,0.8 1.5,2.1 1.5,4.1 0,0.9 -0.4,1.6 -1.1,2.2 -0.7,0.6 -1.3,0.9 -1.7,0.9 -0.3,0 -0.9,-0.2 -1.8,-0.6 -0.9,-0.4 -1.5,-0.6 -1.8,-0.6 -1.4,0 -4.2,1 -8.5,3.1 -4.3,2 -6.4,4.4 -6.4,6.9 0,1.6 0.8,3 2.3,4.3 1.5,1.3 4.2,2.8 8.1,4.7 3.2,1.5 5.7,3.1 7.6,4.9 1.9,1.7 2.8,3.7 2.8,6.1 0,4.3 -3,7.6 -8.9,10.1 -5.9,2.4 -11.5,3.6 -16.9,3.6 -4.5,0 -6.8,-1.5 -6.8,-4.6 0,-1.1 0.5,-1.8 1.5,-2.4 1,-0.5 2,-0.8 3.1,-0.8 0.4,0 1.2,0.1 2.4,0.4 1.1,0.3 1.9,0.4 2.3,0.4 3.1,0 6.4,-0.5 10,-1.6 3.5,-1 5.7,-2.3 6.5,-3.8 z" />
	<path
   id="XMLID_21_"
   class="st0"
   d="m 431.3,194 c 7.6,0 14.9,2.8 21.8,8.5 6.4,6.6 9.6,12.8 9.6,18.6 v 4.1 c 0,6.9 -4,11.9 -11.9,14.9 l -3.7,0.5 c -4.3,0 -7.6,-2.3 -10.1,-6.9 l -0.7,-2.8 c 0.9,-3.4 2.5,-5 4.8,-5 l 1.4,0.2 0.7,-0.2 v -0.2 c 0,-2 -1.8,-3 -5.5,-3 -4.9,0 -8.8,2.6 -11.7,7.8 l -0.2,1.6 v 0.9 l 0.2,1.6 h 0.2 c 0.6,-3.5 2.1,-5.3 4.6,-5.3 h 0.2 c 2.8,0 4.5,1.8 5.3,5.5 v 1.1 c 0,3 -2.1,4.7 -6.2,5.3 -6,-1.1 -8.9,-4 -8.9,-8.7 0,-6 4.3,-10.4 12.8,-13.3 l 3.7,-0.5 c 4.8,0 8,1.7 9.6,5 0.3,0.6 0.5,1.5 0.5,2.5 v 0.2 c 0,1.6 -1.9,2.7 -5.7,3.2 l -0.5,1.1 c 0,2.6 1.8,4.3 5.5,5.3 h 0.9 c 5,0 8.3,-3.4 9.9,-10.1 l 0.2,-2.5 c 0,-8.4 -4.8,-15.6 -14.4,-21.6 -5.2,-2.4 -10.2,-3.7 -14.9,-3.7 -3.1,0 -7,0.7 -11.7,2.1 h -0.7 c -1.7,0 -2.5,-0.8 -2.5,-2.3 0,-1.6 4.1,-3 12.4,-4.1 h 5 z m -1.6,40.4 v 2.3 h 0.7 c 1.4,0 2.1,-0.5 2.1,-1.6 -0.3,-1.1 -0.9,-1.6 -1.8,-1.6 z" />
	<path
   id="XMLID_24_"
   class="st0"
   d="m 490.4,205.7 h 3.7 c 7.7,0 12.7,3.5 15.1,10.5 l 0.5,3.2 c 0,7.1 -4,12.7 -11.9,16.7 -3.4,1.1 -6.9,1.6 -10.3,1.6 -7.5,0 -12.4,-2.5 -14.9,-7.6 l -0.5,-2.1 v -2.3 c 0,-7.3 7.3,-12.6 21.8,-15.8 l 2.8,-0.2 v -0.2 l -3.9,-0.5 c -6.7,0 -13,2.4 -18.8,7.3 -3.7,4.6 -5.5,9.1 -5.5,13.5 0,8.2 5.2,15.7 15.6,22.5 6.9,3.8 14,5.7 21.1,5.7 10.5,0 18.8,-3.7 24.8,-11.2 1.7,-3.2 2.5,-7 2.5,-11.5 1.2,-1.2 2.3,-1.8 3.2,-1.8 1.5,0.6 2.3,1.5 2.3,2.8 0,3.9 -1.9,9.1 -5.7,15.4 -7.1,7.3 -16.6,11 -28.2,11 -13,0 -24.5,-5.8 -34.6,-17.4 -3.8,-5.3 -5.7,-10.5 -5.7,-15.6 0,-6.2 2.8,-11.9 8.3,-17 5.7,-4.6 11.9,-7 18.3,-7 z m 10.1,6 c 0,0.8 -2.4,1.5 -7.1,2.3 -11.3,3.9 -17,7.9 -17,11.9 0,4.6 3.5,7.3 10.5,8.3 5.9,0 11.1,-2.1 15.6,-6.2 1.5,-2.4 2.3,-4.5 2.3,-6.4 v -0.7 c 0,-3.6 -1.4,-6.7 -4.3,-9.2 z" />
	<path
   id="XMLID_27_"
   class="st0"
   d="m 529.8,211.7 h 3.9 c 3.3,0 5.8,1.8 7.6,5.3 3.7,-2 6.8,-3 9.4,-3 6.2,0 10.6,4 13.1,11.9 0.5,1.6 0.7,3.2 0.7,4.8 v 4.6 c 0,2.9 -1,4.4 -3,4.4 -1.2,0 -1.9,-0.9 -2.1,-2.8 h -0.2 l 0.2,-2.8 v -4.4 c -0.2,-5.9 -2.6,-9.6 -7.3,-11.2 h -1.4 c -1.6,0 -3.8,0.8 -6.7,2.3 v 0.5 c 2.4,1.5 3.7,3.7 3.7,6.9 0,6.3 -4.2,10.2 -12.6,11.5 l -3,0.2 c -9.7,0 -16.6,-5.5 -20.6,-16.5 v -0.2 c 0,-0.4 0.4,-0.8 1.1,-1.1 l 6.4,3.4 c 1.6,0.6 3.2,0.9 4.8,0.9 4.1,0 8.6,-2.3 13.5,-6.9 -0.8,-2.6 -2.1,-3.9 -3.7,-3.9 h -3 c 0.6,1 0.9,1.9 0.9,2.8 v 0.9 c 0,2.6 -2.1,4.2 -6.4,4.8 -4,-0.6 -6,-2.1 -6,-4.4 v -1.6 c 0,-3 2.8,-5.1 8.5,-6.2 z m -4.3,18.6 h -2.8 c -1.3,0 -2.3,-0.2 -3,-0.5 v 0.2 c 3.3,3.8 7.8,5.7 13.5,5.7 h 0.2 c 3.9,0 6.7,-1.5 8.5,-4.6 0.6,-1.3 0.9,-2.5 0.9,-3.7 v -0.2 c 0,-1.5 -0.6,-2.3 -1.8,-2.3 h -1.4 l -1.1,0.2 V 225 c -5.2,3.5 -9.5,5.3 -13,5.3 z m -1.4,-12.7 v 0.7 c 0,1.1 0.5,1.6 1.6,1.6 h 0.2 c 1.2,-0.2 1.8,-0.7 1.8,-1.6 l -0.9,-2.3 c -1.7,0.6 -2.6,1.2 -2.7,1.6 z" />
	<path
   id="XMLID_31_"
   class="st0"
   d="m 561.3,172.9 h 0.7 c 0.8,0 1.4,7.9 1.8,23.6 0,1.1 2.4,2.3 7.3,3.7 h 2.5 c 4.7,0 8.1,-2.2 10.1,-6.7 l 0.2,-1.4 c 0,-3.1 -1.4,-5 -4.1,-5.7 h -0.7 c 0.9,0.9 1.4,1.9 1.4,3 0,1.8 -1.5,3 -4.4,3.7 H 576 c -2.6,0 -4.1,-1.6 -4.6,-4.8 0.8,-4.3 2.7,-6.4 5.7,-6.4 h 0.7 c 4.5,0 7.7,2.6 9.6,7.8 l 0.2,1.8 v 2.1 c 0,5 -3.5,8.6 -10.5,11 l -2.3,0.2 h -1.4 c -3.1,0 -6.2,-0.8 -9.2,-2.5 v 0.2 l 0.9,20 -0.2,0.2 h -0.5 c -1.6,-0.9 -2.8,-1.8 -3.4,-2.5 l -0.5,-19.7 c 0,-0.5 -1.2,-2.2 -3.7,-5 -1.7,-3.4 -2.5,-6.5 -2.5,-9.2 0.1,-4.7 2.4,-9.2 7,-13.4 z m -1.6,9 c -0.8,1.7 -1.1,3.1 -1.1,4.4 v 1.1 c 0,1.4 0.5,3.2 1.6,5.5 h 0.2 l -0.2,-2.3 v -3 l -0.2,-5.7 z" />
	<path
   id="XMLID_34_"
   class="st0"
   d="m 584.2,211.7 h 3.9 c 3.3,0 5.8,1.8 7.6,5.3 3.7,-2 6.8,-3 9.4,-3 6.2,0 10.6,4 13.1,11.9 0.5,1.6 0.7,3.2 0.7,4.8 v 4.6 c 0,2.9 -1,4.4 -3,4.4 -1.2,0 -1.9,-0.9 -2.1,-2.8 h -0.2 l 0.2,-2.8 v -4.4 c -0.2,-5.9 -2.6,-9.6 -7.3,-11.2 h -1.4 c -1.6,0 -3.8,0.8 -6.7,2.3 v 0.5 c 2.4,1.5 3.7,3.7 3.7,6.9 0,6.3 -4.2,10.2 -12.6,11.5 l -3,0.2 c -9.7,0 -16.6,-5.5 -20.6,-16.5 v -0.2 c 0,-0.4 0.4,-0.8 1.1,-1.1 l 6.4,3.4 c 1.6,0.6 3.2,0.9 4.8,0.9 4.1,0 8.6,-2.3 13.5,-6.9 -0.8,-2.6 -2.1,-3.9 -3.7,-3.9 h -3 c 0.6,1 0.9,1.9 0.9,2.8 v 0.9 c 0,2.6 -2.1,4.2 -6.4,4.8 -4,-0.6 -6,-2.1 -6,-4.4 v -1.6 c 0,-3 2.8,-5.1 8.5,-6.2 z m -4.3,18.6 h -2.8 c -1.3,0 -2.3,-0.2 -3,-0.5 v 0.2 c 3.3,3.8 7.8,5.7 13.5,5.7 h 0.2 c 3.9,0 6.7,-1.5 8.5,-4.6 0.6,-1.3 0.9,-2.5 0.9,-3.7 v -0.2 c 0,-1.5 -0.6,-2.3 -1.8,-2.3 H 594 l -1.1,0.2 V 225 c -5.2,3.5 -9.5,5.3 -13,5.3 z m -1.4,-12.7 v 0.7 c 0,1.1 0.5,1.6 1.6,1.6 h 0.2 c 1.2,-0.2 1.8,-0.7 1.8,-1.6 l -0.9,-2.3 c -1.7,0.6 -2.6,1.2 -2.7,1.6 z" />
	<path
   id="XMLID_38_"
   class="st0"
   d="m 638.6,208.2 c 2.6,0 5.2,1.8 7.8,5.5 2.8,-1.2 5.5,-1.8 8.3,-1.8 h 0.7 c 7.2,0 12,3.9 14.4,11.7 l 0.5,3.2 v 3 c 0,5.7 -3.9,10.9 -11.7,15.6 -2,0.9 -3.3,1.4 -3.9,1.4 -2.3,-0.5 -3.4,-1.7 -3.4,-3.4 0,-0.8 1.5,-1.3 4.6,-1.4 6.6,-2.9 9.9,-7.8 9.9,-14.7 0,-4.5 -1.8,-7.8 -5.3,-10.1 -1.3,-0.6 -2.8,-0.9 -4.4,-0.9 H 654 c -1.7,0 -4,0.4 -6.9,1.1 v 0.7 l -0.2,1.1 h 0.2 c 5,0 7.8,3.1 8.5,9.4 0,5.5 -4.4,9.1 -13.3,10.8 l -4.1,0.2 c -4.8,0 -8,-1.5 -9.4,-4.4 -0.2,-1.1 -0.6,-1.9 -1.1,-2.3 -2.8,1.1 -4.7,1.6 -5.7,1.6 -1,0 -1.5,-0.7 -1.6,-2.1 0,-1.5 2.3,-3.6 6.9,-6.2 9.4,-7 14.5,-10.5 15.4,-10.5 v -0.5 c -1.6,-1.8 -3.6,-2.8 -6.2,-2.8 0.6,0.8 0.9,1.6 0.9,2.5 v 0.7 c 0,2.3 -2.1,4 -6.4,5 h -1.4 c -3.2,-0.6 -4.8,-2.1 -4.8,-4.6 0,-3.9 3.6,-6.5 10.8,-8 h 3 z m -9.6,7.4 v 0.7 c 0.2,0.6 0.9,0.9 2.3,0.9 0.9,-0.3 1.5,-0.8 1.8,-1.6 -0.3,-1 -0.8,-1.6 -1.4,-1.8 h -0.2 c -0.8,0 -1.6,0.6 -2.5,1.8 z m 10.3,10.5 h -1.1 c -1.2,0 -1.9,-0.6 -2.3,-1.8 -3.7,2.9 -5.8,4.4 -6.2,4.4 2.8,4.7 6,7.1 9.4,7.1 4.6,0 8.4,-1.8 11.5,-5.5 l 0.5,-1.8 c -0.6,-3.7 -2.4,-5.5 -5.5,-5.5 -1.9,0 -3.9,1.1 -6.3,3.1 z m -1.1,-3.4 h 0.2 c 2.1,-0.9 3.5,-1.9 4.1,-3 h -0.2 c -1.8,1 -3.2,2 -4.1,3 z" />
	<path
   id="XMLID_43_"
   class="st0"
   d="m 666.6,172.9 h 0.7 c 0.8,0 1.4,7.9 1.8,23.6 0,1.1 2.4,2.3 7.3,3.7 h 2.5 c 4.7,0 8.1,-2.2 10.1,-6.7 l 0.2,-1.4 c 0,-3.1 -1.4,-5 -4.1,-5.7 h -0.7 c 0.9,0.9 1.4,1.9 1.4,3 0,1.8 -1.5,3 -4.4,3.7 h -0.2 c -2.6,0 -4.1,-1.6 -4.6,-4.8 0.8,-4.3 2.7,-6.4 5.7,-6.4 h 0.7 c 4.5,0 7.7,2.6 9.6,7.8 l 0.2,1.8 v 2.1 c 0,5 -3.5,8.6 -10.5,11 l -2.3,0.2 h -1.4 c -3.1,0 -6.2,-0.8 -9.2,-2.5 v 0.2 l 0.9,20 -0.2,0.2 h -0.5 c -1.6,-0.9 -2.8,-1.8 -3.4,-2.5 l -0.5,-19.7 c 0,-0.5 -1.2,-2.2 -3.7,-5 -1.7,-3.4 -2.5,-6.5 -2.5,-9.2 0.2,-4.7 2.5,-9.2 7.1,-13.4 z m -1.6,9 c -0.8,1.7 -1.1,3.1 -1.1,4.4 v 1.1 c 0,1.4 0.5,3.2 1.6,5.5 h 0.2 l -0.2,-2.3 v -3 l -0.2,-5.7 z" />
	<path
   id="XMLID_46_"
   class="st0"
   d="m 735.9,205.3 h 2.8 c 4.9,0 8.1,2.5 9.6,7.6 v 2.8 c -0.5,4.1 -2.3,6.2 -5.3,6.2 -3.6,0 -5.8,-2.4 -6.7,-7.3 0.6,-1.7 1.5,-2.5 2.5,-2.5 h 0.5 c 0.5,0.2 1,0.9 1.4,2.1 l -0.2,0.7 c 0.3,1.8 1,2.8 2.3,2.8 1.2,-0.4 1.8,-1.2 1.8,-2.3 0,-2.6 -2.4,-4.6 -7.3,-6 h -0.5 c -3.4,0.8 -5,1.8 -5,2.8 -0.4,0 -0.7,0.8 -0.9,2.3 0,1.6 2.1,3.5 6.4,5.5 4,2.7 6,5.5 6,8.5 v 0.5 c 0,5.5 -4.7,9.1 -14,10.8 l -6.2,0.5 c -7.8,0 -13.5,-2.7 -17,-8 -0.9,-1.6 -1.4,-3.2 -1.4,-4.8 v -0.9 c 0,-3.2 3.5,-6.2 10.5,-8.9 1.4,-0.8 2.1,-1.3 2.1,-1.6 -1.3,-1.1 -2.6,-1.6 -3.9,-1.6 -1.5,4.1 -4,6.2 -7.6,6.2 -3.1,0 -5,-1.3 -5.5,-3.9 v -0.5 c 1,-3.8 4.9,-5.7 11.5,-5.7 h 1.8 c 4.4,0 7.7,1.9 10.1,5.7 0.3,0 0.5,0.6 0.7,1.8 0,1.2 -2.4,2.1 -7.1,2.8 -6,1.8 -8.9,4.1 -8.9,6.9 0,3.1 2.9,5.7 8.7,7.8 1.7,0.5 3.7,0.8 6.2,0.9 10.1,-1.3 15.1,-3.6 15.1,-6.9 v -0.9 c 0,-2.2 -3.3,-5 -9.9,-8.5 -2.1,-1.6 -3.2,-3.4 -3.2,-5.3 0,-3.6 2.8,-6.5 8.5,-8.9 z m -31,10.5 0.2,0.2 h 0.9 l 1.6,-1.6 h -0.5 c -1.1,0.5 -1.8,0.9 -2.2,1.4 z" />
	<path
   id="XMLID_49_"
   class="st0"
   d="m 741.3,228.4 0.2,0.2 0.7,47.7 c 0,0.7 -0.5,1.3 -1.6,1.8 -1.6,0 -4.5,-3.6 -8.5,-10.8 -3.9,-6.2 -8.6,-12 -14,-17.7 -2.4,-2.3 -5.1,-3.4 -8.3,-3.4 -0.6,-0.7 -0.9,-1.3 -0.9,-1.8 0,-1.7 1.2,-2.8 3.7,-3.2 h 0.2 c 3.1,0 9.5,6.3 19.3,18.8 l 5.7,8.7 v -39 c 0,-0.3 1.2,-0.8 3.5,-1.3 z" />
	<path
   id="XMLID_51_"
   class="st0"
   d="m 750.9,186.2 h 1.4 c 1.6,1.7 3.4,2.5 5.3,2.5 1.8,0 5.4,0.7 10.8,2.1 0,-0.2 0.3,-0.5 0.9,-0.7 2.2,0 3.7,0.6 4.6,1.8 v 1.1 c 7.5,3.1 13.3,8.2 17.2,15.4 1.8,4 2.8,7.1 2.8,9.4 v 3.4 c 0,5.3 -2.8,9.9 -8.3,14 -2.9,1.8 -6,2.8 -9.4,2.8 h -2.3 c -5.7,0 -9.8,-2.1 -12.2,-6.4 l -0.2,-1.6 v -1.6 c 0,-2.4 1.6,-4.5 4.8,-6.2 V 222 l -1.6,0.2 h -1.1 c -2.2,0 -3.5,-1.4 -3.9,-4.1 l 0.5,-2.3 c -4.4,2.5 -6.7,6.4 -6.7,11.7 0.6,5 2.7,7.6 6.4,7.6 1.4,0.8 2.1,1.6 2.1,2.5 -0.3,1.5 -0.9,2.3 -1.8,2.3 -5.4,0 -8.9,-2.8 -10.8,-8.3 l -0.5,-4.1 V 227 c 0,-7.6 3.7,-13 11.2,-16.1 l 4.6,-0.5 3.9,0.5 1.8,-0.2 c 4.4,0 9,2.4 13.8,7.1 l 0.5,0.9 c 0,1.5 -2.3,2.5 -6.9,3.2 -8,2 -11.9,4.1 -11.9,6.4 0,2.7 2.5,4.3 7.6,4.8 h 2.3 c 6.2,0 10.7,-3.3 13.5,-9.9 l 0.2,-2.3 v -1.1 c 0,-6.7 -3.6,-13.1 -10.8,-19.3 -3.6,-2.1 -5.8,-3.2 -6.7,-3.2 -3.1,3.7 -7.6,5.5 -13.5,5.5 -5.8,0 -9.4,-2.1 -10.5,-6.4 v -0.7 c 0.2,-1.6 0.8,-3.3 2.1,-5 -0.8,-0.8 -1.1,-1.5 -1.1,-2.1 v -0.5 c 0,-1.2 0.7,-1.9 1.9,-1.9 z m 1.8,8.5 v 0.2 c 0,2.4 2,3.7 6,3.7 4.4,0 7.3,-1 8.7,-3 -6,-1.5 -9.7,-2.3 -11.2,-2.3 -2.3,0.2 -3.5,0.7 -3.5,1.4 z m 12,21.1 c -0.8,0.8 -1.1,1.5 -1.1,2.1 0.2,0.6 0.5,0.9 1.1,0.9 1.1,-0.2 1.6,-0.5 1.6,-0.9 v -0.2 c -0.2,-1.3 -0.7,-1.9 -1.6,-1.9 z m 4.5,-1.1 c 0.5,0.8 0.7,1.5 0.7,2.3 v 0.7 c 0,1.3 -0.9,2.6 -2.8,3.7 v 0.2 h 0.2 c 2.6,-1.2 6.4,-2.4 11.5,-3.4 -2.1,-2.6 -4.7,-3.9 -7.8,-3.9 h -1.4 z" />
	<path
   id="XMLID_56_"
   class="st0"
   d="m 797.2,192 c 8.6,0 16.7,3.4 24.3,10.1 5.2,5.8 7.8,11.4 7.8,16.5 v 4.1 c 0,5.7 -2.8,10.6 -8.3,14.7 -3.7,1.7 -7.1,2.5 -10.3,2.5 -7,0 -11.5,-3.4 -13.5,-10.1 l -0.2,-1.6 c 0,-1.8 0.8,-3.3 2.3,-4.4 -1.8,0 -2.9,-1.4 -3.4,-4.1 v -1.1 c 0,-3.5 3.4,-5.7 10.1,-6.7 5.2,0 10.1,2.6 14.7,7.8 v 1.1 c 0,1.4 -4.7,2.8 -14,4.4 -3.1,0.9 -4.6,2.4 -4.6,4.4 0,1.1 0.8,2.4 2.5,3.9 1.9,0.9 3.7,1.4 5.5,1.4 6.8,0 11.4,-2.9 13.8,-8.7 l 0.9,-6.4 c 0,-6.4 -4,-12.6 -11.9,-18.6 -5,-3.2 -10.5,-4.8 -16.3,-4.8 h -2.1 c -2.8,0 -6.2,0.8 -10.3,2.3 -2,-0.5 -3,-1.3 -3,-2.5 0,-1.5 3.7,-2.8 11,-4.1 h 5 z m 2.1,27.7 0.9,0.9 h 1.4 l 0.7,-0.7 v -1.1 l -1.1,-1.1 H 801 c -1.2,0.4 -1.7,1.1 -1.7,2 z m 5.7,-3.2 c 0.6,1.1 0.9,2.1 0.9,2.8 l -0.5,2.1 h 0.2 l 8.7,-2.1 c -1.7,-2.1 -3.9,-3.2 -6.4,-3.2 h -1.8 c -0.7,0 -1.1,0.1 -1.1,0.4 z" />
	<path
   id="XMLID_60_"
   class="st0"
   d="m 848.4,211.7 h 3.9 c 3.3,0 5.8,1.8 7.6,5.3 3.7,-2 6.8,-3 9.4,-3 6.2,0 10.6,4 13.1,11.9 0.5,1.6 0.7,3.2 0.7,4.8 v 4.6 c 0,2.9 -1,4.4 -3,4.4 -1.2,0 -1.9,-0.9 -2.1,-2.8 h -0.2 l 0.2,-2.8 v -4.4 c -0.2,-5.9 -2.6,-9.6 -7.3,-11.2 h -1.4 c -1.6,0 -3.8,0.8 -6.7,2.3 v 0.5 c 2.4,1.5 3.7,3.7 3.7,6.9 0,6.3 -4.2,10.2 -12.6,11.5 l -3,0.2 c -9.7,0 -16.6,-5.5 -20.6,-16.5 v -0.2 c 0,-0.4 0.4,-0.8 1.1,-1.1 l 6.4,3.4 c 1.6,0.6 3.2,0.9 4.8,0.9 4.1,0 8.6,-2.3 13.5,-6.9 -0.8,-2.6 -2.1,-3.9 -3.7,-3.9 h -3 c 0.6,1 0.9,1.9 0.9,2.8 v 0.9 c 0,2.6 -2.1,4.2 -6.4,4.8 -4,-0.6 -6,-2.1 -6,-4.4 v -1.6 c 0,-3 2.8,-5.1 8.5,-6.2 z m -4.4,18.6 h -2.8 c -1.3,0 -2.3,-0.2 -3,-0.5 v 0.2 c 3.3,3.8 7.8,5.7 13.5,5.7 h 0.2 c 3.9,0 6.7,-1.5 8.5,-4.6 0.6,-1.3 0.9,-2.5 0.9,-3.7 v -0.2 c 0,-1.5 -0.6,-2.3 -1.8,-2.3 h -1.4 l -1.1,0.2 V 225 c -5.1,3.5 -9.5,5.3 -13,5.3 z m -1.4,-12.7 v 0.7 c 0,1.1 0.5,1.6 1.6,1.6 h 0.2 c 1.2,-0.2 1.8,-0.7 1.8,-1.6 l -0.9,-2.3 c -1.6,0.6 -2.6,1.2 -2.7,1.6 z" />
	<path
   id="XMLID_64_"
   class="st0"
   d="m 879.8,172.9 h 0.7 c 0.8,0 1.4,7.9 1.8,23.6 0,1.1 2.4,2.3 7.3,3.7 h 2.5 c 4.7,0 8.1,-2.2 10.1,-6.7 l 0.2,-1.4 c 0,-3.1 -1.4,-5 -4.1,-5.7 h -0.7 c 0.9,0.9 1.4,1.9 1.4,3 0,1.8 -1.5,3 -4.4,3.7 h -0.2 c -2.6,0 -4.1,-1.6 -4.6,-4.8 0.8,-4.3 2.7,-6.4 5.7,-6.4 h 0.7 c 4.5,0 7.7,2.6 9.6,7.8 l 0.2,1.8 v 2.1 c 0,5 -3.5,8.6 -10.5,11 l -2.3,0.2 H 892 c -3.1,0 -6.2,-0.8 -9.2,-2.5 v 0.2 l 0.9,20 -0.2,0.2 H 883 c -1.6,-0.9 -2.8,-1.8 -3.4,-2.5 l -0.5,-19.7 c 0,-0.5 -1.2,-2.2 -3.7,-5 -1.7,-3.4 -2.5,-6.5 -2.5,-9.2 0.1,-4.7 2.3,-9.2 6.9,-13.4 z m -1.6,9 c -0.8,1.7 -1.1,3.1 -1.1,4.4 v 1.1 c 0,1.4 0.5,3.2 1.6,5.5 h 0.2 l -0.2,-2.3 v -3 l -0.2,-5.7 z" />
	<path
   id="XMLID_67_"
   class="st0"
   d="m 257.1,312.1 c 3.5,0 6.3,2 8.3,6 3.1,-1.4 6,-2.1 8.7,-2.1 h 0.7 c 6.9,0 11.6,4.1 14.2,12.4 l 0.5,3.2 v 2.8 c 0,6.8 -4.9,12.2 -14.7,16.1 l -0.9,0.2 c -2.3,-0.5 -3.4,-1.7 -3.4,-3.4 0,-0.7 2.1,-1.3 6.2,-1.8 5.5,-3.1 8.3,-7.5 8.3,-13.3 0,-4.1 -1.6,-7.5 -4.8,-10.3 -2,-0.8 -3.6,-1.1 -4.8,-1.1 h -1.8 c -2.1,0 -4.5,0.5 -7.1,1.4 v 0.7 l -0.2,1.1 c 4,0 6.7,2.3 8.3,6.9 0.3,0.8 0.5,1.9 0.5,3.2 0,3.9 -1.8,6.7 -5.5,8.5 l -1.8,0.5 h -1.4 c -2.2,0 -4.4,-0.8 -6.7,-2.3 -2.4,1.7 -4.2,2.5 -5.5,2.5 H 253 c -1.8,0 -3.8,-1.5 -6.2,-4.4 h -0.2 c -2.4,0.8 -4,1.1 -4.8,1.1 -1.1,0 -1.8,-0.6 -2.3,-1.8 0,-1.6 2.2,-3.7 6.7,-6.4 7.3,-5.8 12.5,-9.6 15.6,-11.5 v -0.5 c -1.6,-2 -3.7,-3 -6.2,-3 l 0.9,2.3 v 0.9 c 0,3.1 -2.4,5 -7.3,5.7 -3.5,-0.6 -5.3,-2.2 -5.3,-4.8 0,-4.4 3.7,-7.3 11,-8.7 h 2.2 z m -8.9,8.3 v 0.5 c 0,0.2 0.5,0.5 1.6,0.9 1,0 1.8,-0.5 2.3,-1.4 v -0.7 c -0.2,-1.2 -0.7,-1.8 -1.6,-1.8 -1.6,0.7 -2.3,1.5 -2.3,2.5 z m 10.3,10.8 h -1.1 c -1,0 -1.8,-0.6 -2.3,-1.8 l -6.2,4.6 v 0.2 c 2.1,3.2 3.7,4.8 4.6,4.8 h 0.2 c 1.6,0 2.8,-0.8 3.4,-2.5 l -0.5,-4.4 c 0.6,-0.5 1.3,-0.7 2.1,-0.7 h 0.2 c 1.2,0 1.8,0.6 1.8,1.8 v 1.6 c 0,2.2 0.8,3.6 2.5,4.1 l 1.6,0.5 h 1.4 c 2.1,0 3.4,-1.8 3.9,-5.5 0,-3.4 -1.8,-5.4 -5.3,-6.2 -1.6,0.1 -3.8,1.3 -6.3,3.5 z m -1.6,-3.7 v 0.2 h 0.2 c 3.1,-1.4 4.6,-2.6 4.6,-3.4 h -0.2 z" />
	<path
   id="XMLID_72_"
   class="st0"
   d="m 334.6,277.3 h 1.4 c 1.2,0 1.8,0.6 1.8,1.8 v 0.9 c 0,0.6 -2.8,1.6 -8.3,3.2 -14.6,8.1 -25.3,18.9 -31.9,32.6 l -1.1,3.2 c 4.2,-3.2 9.6,-4.8 16.1,-4.8 h 0.2 c 9.4,0 15.7,3.5 18.8,10.5 l 0.5,3 v 1.4 c 0,5.4 -3.4,9.6 -10.3,12.8 -2.4,0.8 -5.2,1.1 -8.3,1.1 -11.9,0 -19.5,-4.3 -22.7,-12.8 -0.6,-2.2 -0.9,-3.9 -0.9,-5.3 0.4,-5 2.5,-10.9 6.2,-17.4 2.8,-4.4 7.8,-10 14.9,-16.7 10.5,-8.4 18.4,-12.9 23.6,-13.5 z m -39.2,49.5 v 0.2 c 2.7,7.3 8.2,11 16.5,11 6,0 10.6,-1.6 14,-4.8 0.9,-1.4 1.4,-2.5 1.4,-3.4 0,-4.2 -2.4,-7.1 -7.3,-8.9 l -6.4,-0.9 c -7,0 -12.9,2 -17.7,6 z" />
	<path
   id="XMLID_75_"
   class="st0"
   d="m 351.8,314.9 h 3.9 c 3.3,0 5.8,1.8 7.6,5.3 3.7,-2 6.8,-3 9.4,-3 6.2,0 10.6,4 13.1,11.9 0.5,1.6 0.7,3.2 0.7,4.8 v 4.6 c 0,2.9 -1,4.4 -3,4.4 -1.2,0 -1.9,-0.9 -2.1,-2.8 h -0.2 l 0.2,-2.8 V 333 c -0.2,-5.9 -2.6,-9.6 -7.3,-11.2 h -1.4 c -1.6,0 -3.8,0.8 -6.7,2.3 v 0.5 c 2.4,1.5 3.7,3.7 3.7,6.9 0,6.3 -4.2,10.2 -12.6,11.5 l -3,0.2 c -9.7,0 -16.6,-5.5 -20.6,-16.5 v -0.2 c 0,-0.4 0.4,-0.8 1.1,-1.1 l 6.4,3.4 c 1.6,0.6 3.2,0.9 4.8,0.9 4.1,0 8.6,-2.3 13.5,-6.9 -0.8,-2.6 -2.1,-3.9 -3.7,-3.9 h -3 c 0.6,1 0.9,2 0.9,2.8 v 0.9 c 0,2.6 -2.1,4.2 -6.4,4.8 -4,-0.6 -6,-2.1 -6,-4.4 v -1.6 c 0,-3 2.8,-5.1 8.5,-6.2 z m -4.4,18.6 h -2.8 c -1.3,0 -2.3,-0.2 -3,-0.5 v 0.2 c 3.3,3.8 7.8,5.7 13.5,5.7 h 0.2 c 3.9,0 6.7,-1.5 8.5,-4.6 0.6,-1.3 0.9,-2.5 0.9,-3.7 v -0.2 c 0,-1.5 -0.6,-2.3 -1.8,-2.3 h -1.4 l -1.1,0.2 v -0.2 c -5.1,3.6 -9.5,5.4 -13,5.4 z M 346,320.8 v 0.7 c 0,1.1 0.5,1.6 1.6,1.6 h 0.2 c 1.2,-0.2 1.8,-0.7 1.8,-1.6 l -0.9,-2.3 c -1.6,0.6 -2.5,1.2 -2.7,1.6 z" />
	<path
   id="XMLID_79_"
   class="st0"
   d="m 383.3,276.1 h 0.7 c 0.8,0 1.4,7.9 1.8,23.6 0,1.1 2.4,2.3 7.3,3.7 h 2.5 c 4.7,0 8.1,-2.2 10.1,-6.7 l 0.2,-1.4 c 0,-3.1 -1.4,-5 -4.1,-5.7 h -0.7 c 0.9,0.9 1.4,1.9 1.4,3 0,1.8 -1.5,3 -4.4,3.7 h -0.2 c -2.6,0 -4.1,-1.6 -4.6,-4.8 0.8,-4.3 2.7,-6.4 5.7,-6.4 h 0.7 c 4.5,0 7.7,2.6 9.6,7.8 l 0.2,1.8 v 2.1 c 0,5 -3.5,8.6 -10.5,11 l -2.3,0.2 h -1.4 c -3.1,0 -6.2,-0.8 -9.2,-2.5 v 0.2 l 0.9,20 -0.2,0.2 h -0.5 c -1.6,-0.9 -2.8,-1.8 -3.4,-2.5 l -0.5,-19.7 c 0,-0.5 -1.2,-2.2 -3.7,-5 -1.7,-3.4 -2.5,-6.5 -2.5,-9.2 0.2,-4.7 2.5,-9.2 7.1,-13.4 z m -1.6,9 c -0.8,1.7 -1.1,3.1 -1.1,4.4 v 1.1 c 0,1.4 0.5,3.2 1.6,5.5 h 0.2 l -0.2,-2.3 v -3 l -0.2,-5.7 z" />
	<path
   id="XMLID_82_"
   class="st0"
   d="m 406.2,314.9 h 3.9 c 3.3,0 5.8,1.8 7.6,5.3 3.7,-2 6.8,-3 9.4,-3 6.2,0 10.6,4 13.1,11.9 0.5,1.6 0.7,3.2 0.7,4.8 v 4.6 c 0,2.9 -1,4.4 -3,4.4 -1.2,0 -1.9,-0.9 -2.1,-2.8 h -0.2 l 0.2,-2.8 V 333 c -0.2,-5.9 -2.6,-9.6 -7.3,-11.2 h -1.4 c -1.6,0 -3.8,0.8 -6.7,2.3 v 0.5 c 2.4,1.5 3.7,3.7 3.7,6.9 0,6.3 -4.2,10.2 -12.6,11.5 l -3,0.2 c -9.7,0 -16.6,-5.5 -20.6,-16.5 v -0.2 c 0,-0.4 0.4,-0.8 1.1,-1.1 l 6.4,3.4 c 1.6,0.6 3.2,0.9 4.8,0.9 4.1,0 8.6,-2.3 13.5,-6.9 -0.8,-2.6 -2.1,-3.9 -3.7,-3.9 h -3 c 0.6,1 0.9,2 0.9,2.8 v 0.9 c 0,2.6 -2.1,4.2 -6.4,4.8 -4,-0.6 -6,-2.1 -6,-4.4 v -1.6 c 0,-3 2.8,-5.1 8.5,-6.2 z m -4.4,18.6 H 399 c -1.3,0 -2.3,-0.2 -3,-0.5 v 0.2 c 3.3,3.8 7.8,5.7 13.5,5.7 h 0.2 c 3.9,0 6.7,-1.5 8.5,-4.6 0.6,-1.3 0.9,-2.5 0.9,-3.7 v -0.2 c 0,-1.5 -0.6,-2.3 -1.8,-2.3 h -1.4 l -1.1,0.2 v -0.2 c -5.1,3.6 -9.4,5.4 -13,5.4 z m -1.3,-12.7 v 0.7 c 0,1.1 0.5,1.6 1.6,1.6 h 0.2 c 1.2,-0.2 1.8,-0.7 1.8,-1.6 l -0.9,-2.3 c -1.7,0.6 -2.6,1.2 -2.7,1.6 z" />
	<path
   id="XMLID_86_"
   class="st0"
   d="m 460.6,311.4 c 2.6,0 5.2,1.8 7.8,5.5 2.8,-1.2 5.5,-1.8 8.3,-1.8 h 0.7 c 7.2,0 12,3.9 14.4,11.7 l 0.5,3.2 v 3 c 0,5.7 -3.9,10.9 -11.7,15.6 -2,0.9 -3.3,1.4 -3.9,1.4 -2.3,-0.5 -3.4,-1.7 -3.4,-3.4 0,-0.8 1.5,-1.3 4.6,-1.4 6.6,-2.9 9.9,-7.8 9.9,-14.7 0,-4.5 -1.8,-7.8 -5.3,-10.1 -1.3,-0.6 -2.8,-0.9 -4.4,-0.9 H 476 c -1.7,0 -4,0.4 -6.9,1.1 v 0.7 l -0.2,1.1 h 0.2 c 5,0 7.8,3.1 8.5,9.4 0,5.5 -4.4,9.1 -13.3,10.8 l -4.1,0.2 c -4.8,0 -8,-1.5 -9.4,-4.4 -0.2,-1.1 -0.6,-1.9 -1.1,-2.3 -2.8,1.1 -4.7,1.6 -5.7,1.6 -1,0 -1.5,-0.7 -1.6,-2.1 0,-1.5 2.3,-3.6 6.9,-6.2 9.4,-7 14.5,-10.5 15.4,-10.5 v -0.5 c -1.6,-1.8 -3.6,-2.8 -6.2,-2.8 0.6,0.8 0.9,1.6 0.9,2.5 v 0.7 c 0,2.3 -2.1,4 -6.4,5 h -1.4 c -3.2,-0.6 -4.8,-2.1 -4.8,-4.6 0,-3.9 3.6,-6.5 10.8,-8 h 3 z m -9.6,7.4 v 0.7 c 0.2,0.6 0.9,0.9 2.3,0.9 0.9,-0.3 1.5,-0.8 1.8,-1.6 -0.3,-1 -0.8,-1.6 -1.4,-1.8 h -0.2 c -0.8,0 -1.7,0.6 -2.5,1.8 z m 10.3,10.5 h -1.1 c -1.2,0 -1.9,-0.6 -2.3,-1.8 -3.7,2.9 -5.8,4.4 -6.2,4.4 2.8,4.7 6,7.1 9.4,7.1 4.6,0 8.4,-1.8 11.5,-5.5 l 0.5,-1.8 c -0.6,-3.7 -2.4,-5.5 -5.5,-5.5 -1.9,0 -4,1.1 -6.3,3.1 z m -1.2,-3.4 h 0.2 c 2.1,-0.9 3.5,-1.9 4.1,-3 h -0.2 c -1.7,1 -3.1,2 -4.1,3 z" />
	<path
   id="XMLID_91_"
   class="st0"
   d="m 488.6,276.1 h 0.7 c 0.8,0 1.4,7.9 1.8,23.6 0,1.1 2.4,2.3 7.3,3.7 h 2.5 c 4.7,0 8.1,-2.2 10.1,-6.7 l 0.2,-1.4 c 0,-3.1 -1.4,-5 -4.1,-5.7 h -0.7 c 0.9,0.9 1.4,1.9 1.4,3 0,1.8 -1.5,3 -4.4,3.7 h -0.2 c -2.6,0 -4.1,-1.6 -4.6,-4.8 0.8,-4.3 2.7,-6.4 5.7,-6.4 h 0.7 c 4.5,0 7.7,2.6 9.6,7.8 l 0.2,1.8 v 2.1 c 0,5 -3.5,8.6 -10.5,11 L 502,308 h -1.4 c -3.1,0 -6.2,-0.8 -9.2,-2.5 v 0.2 l 0.9,20 -0.2,0.2 h -0.5 c -1.6,-0.9 -2.8,-1.8 -3.4,-2.5 l -0.5,-19.7 c 0,-0.5 -1.2,-2.2 -3.7,-5 -1.7,-3.4 -2.5,-6.5 -2.5,-9.2 0.2,-4.7 2.5,-9.2 7.1,-13.4 z m -1.6,9 c -0.8,1.7 -1.1,3.1 -1.1,4.4 v 1.1 c 0,1.4 0.5,3.2 1.6,5.5 h 0.2 l -0.2,-2.3 v -3 l -0.2,-5.7 z" />
	<path
   id="XMLID_94_"
   class="st0"
   d="m 557.8,308.5 h 2.8 c 4.9,0 8.1,2.5 9.6,7.6 v 2.8 c -0.5,4.1 -2.3,6.2 -5.3,6.2 -3.6,0 -5.8,-2.4 -6.7,-7.3 0.6,-1.7 1.5,-2.5 2.5,-2.5 h 0.5 c 0.5,0.2 1,0.9 1.4,2.1 l -0.2,0.7 c 0.3,1.8 1,2.8 2.3,2.8 1.2,-0.4 1.8,-1.2 1.8,-2.3 0,-2.6 -2.4,-4.6 -7.3,-6 h -0.5 c -3.4,0.8 -5,1.8 -5,2.8 -0.4,0 -0.7,0.8 -0.9,2.3 0,1.6 2.1,3.5 6.4,5.5 4,2.7 6,5.5 6,8.5 v 0.5 c 0,5.5 -4.7,9.1 -14,10.8 l -6.2,0.5 c -7.8,0 -13.5,-2.7 -17,-8 -0.9,-1.6 -1.4,-3.2 -1.4,-4.8 v -0.9 c 0,-3.2 3.5,-6.2 10.5,-8.9 1.4,-0.8 2.1,-1.3 2.1,-1.6 -1.3,-1.1 -2.6,-1.6 -3.9,-1.6 -1.5,4.1 -4,6.2 -7.6,6.2 -3.1,0 -5,-1.3 -5.5,-3.9 v -1 c 1,-3.8 4.9,-5.7 11.5,-5.7 h 1.8 c 4.4,0 7.7,1.9 10.1,5.7 0.3,0 0.5,0.6 0.7,1.8 0,1.2 -2.4,2.1 -7.1,2.8 -6,1.8 -8.9,4.1 -8.9,6.9 0,3.1 2.9,5.7 8.7,7.8 1.7,0.5 3.7,0.8 6.2,0.9 10.1,-1.3 15.1,-3.6 15.1,-6.9 v -0.9 c 0,-2.2 -3.3,-5 -9.9,-8.5 -2.1,-1.6 -3.2,-3.4 -3.2,-5.3 0,-3.6 2.8,-6.5 8.5,-8.9 z m -30.9,10.5 0.2,0.2 h 0.9 l 1.6,-1.6 h -0.5 c -1.1,0.5 -1.9,0.9 -2.2,1.4 z" />
	<path
   id="XMLID_97_"
   class="st0"
   d="m 563.2,331.6 0.2,0.2 0.7,47.7 c 0,0.7 -0.5,1.3 -1.6,1.8 -1.6,0 -4.5,-3.6 -8.5,-10.8 -3.9,-6.2 -8.6,-12 -14,-17.7 -2.4,-2.3 -5.1,-3.4 -8.3,-3.4 -0.6,-0.7 -0.9,-1.3 -0.9,-1.8 0,-1.7 1.2,-2.8 3.7,-3.2 h 0.2 c 3.1,0 9.5,6.3 19.3,18.8 l 5.7,8.7 v -39 c 0.1,-0.3 1.2,-0.8 3.5,-1.3 z" />
	<path
   id="XMLID_99_"
   class="st0"
   d="m 572.9,289.4 h 1.4 c 1.6,1.7 3.4,2.5 5.3,2.5 1.8,0 5.4,0.7 10.8,2.1 0,-0.2 0.3,-0.5 0.9,-0.7 2.2,0 3.7,0.6 4.6,1.8 v 1.1 c 7.5,3.1 13.3,8.2 17.2,15.4 1.8,4 2.8,7.1 2.8,9.4 v 3.4 c 0,5.3 -2.8,9.9 -8.3,14 -2.9,1.8 -6,2.8 -9.4,2.8 h -2.3 c -5.7,0 -9.8,-2.1 -12.2,-6.4 l -0.2,-1.6 v -1.6 c 0,-2.4 1.6,-4.5 4.8,-6.2 v -0.2 l -1.6,0.2 h -1.1 c -2.2,0 -3.5,-1.4 -3.9,-4.1 l 0.5,-2.3 c -4.4,2.5 -6.7,6.4 -6.7,11.7 0.6,5 2.7,7.6 6.4,7.6 1.4,0.8 2.1,1.6 2.1,2.5 -0.3,1.5 -0.9,2.3 -1.8,2.3 -5.4,0 -8.9,-2.8 -10.8,-8.3 l -0.5,-4.1 v -0.5 c 0,-7.6 3.7,-13 11.2,-16.1 l 4.6,-0.5 3.9,0.5 1.8,-0.2 c 4.4,0 9,2.4 13.8,7.1 l 0.5,0.9 c 0,1.5 -2.3,2.5 -6.9,3.2 -8,2 -11.9,4.1 -11.9,6.4 0,2.7 2.5,4.3 7.6,4.8 h 2.3 c 6.2,0 10.7,-3.3 13.5,-9.9 l 0.2,-2.3 V 323 c 0,-6.7 -3.6,-13.1 -10.8,-19.3 -3.6,-2.1 -5.8,-3.2 -6.7,-3.2 -3.1,3.7 -7.6,5.5 -13.5,5.5 -5.8,0 -9.4,-2.1 -10.5,-6.4 v -0.7 c 0.2,-1.6 0.8,-3.3 2.1,-5 -0.8,-0.8 -1.1,-1.5 -1.1,-2.1 v -0.5 c 0,-1.2 0.7,-1.9 1.9,-1.9 z m 1.8,8.5 v 0.2 c 0,2.4 2,3.7 6,3.7 4.4,0 7.3,-1 8.7,-3 -6,-1.5 -9.7,-2.3 -11.2,-2.3 -2.4,0.2 -3.5,0.7 -3.5,1.4 z m 11.9,21.1 c -0.8,0.8 -1.1,1.5 -1.1,2.1 0.2,0.6 0.5,0.9 1.1,0.9 1.1,-0.2 1.6,-0.5 1.6,-0.9 v -0.2 c -0.1,-1.3 -0.6,-1.9 -1.6,-1.9 z m 4.6,-1.1 c 0.5,0.8 0.7,1.5 0.7,2.3 v 0.7 c 0,1.3 -0.9,2.6 -2.8,3.7 v 0.2 h 0.2 c 2.6,-1.2 6.4,-2.4 11.5,-3.4 -2.1,-2.6 -4.7,-3.9 -7.8,-3.9 h -1.4 z" />
	<path
   id="XMLID_104_"
   class="st0"
   d="m 619.2,295.2 c 8.6,0 16.7,3.4 24.3,10.1 5.2,5.8 7.8,11.4 7.8,16.5 v 4.1 c 0,5.7 -2.8,10.6 -8.3,14.7 -3.7,1.7 -7.1,2.5 -10.3,2.5 -7,0 -11.5,-3.4 -13.5,-10.1 l -0.2,-1.6 c 0,-1.8 0.8,-3.3 2.3,-4.4 -1.8,0 -2.9,-1.4 -3.4,-4.1 v -1.1 c 0,-3.5 3.4,-5.7 10.1,-6.7 5.2,0 10.1,2.6 14.7,7.8 v 1.1 c 0,1.4 -4.7,2.8 -14,4.4 -3.1,0.9 -4.6,2.4 -4.6,4.4 0,1.1 0.8,2.4 2.5,3.9 1.9,0.9 3.7,1.4 5.5,1.4 6.8,0 11.4,-2.9 13.8,-8.7 l 0.9,-6.4 c 0,-6.4 -4,-12.6 -11.9,-18.6 -5,-3.2 -10.5,-4.8 -16.3,-4.8 h -2.1 c -2.8,0 -6.2,0.8 -10.3,2.3 -2,-0.5 -3,-1.3 -3,-2.5 0,-1.5 3.7,-2.8 11,-4.1 h 5 z m 2,27.7 0.9,0.9 h 1.4 l 0.7,-0.7 V 322 l -1.1,-1.1 h -0.2 c -1.1,0.4 -1.7,1.1 -1.7,2 z m 5.8,-3.2 c 0.6,1.1 0.9,2.1 0.9,2.8 l -0.5,2.1 h 0.2 l 8.7,-2.1 c -1.7,-2.1 -3.9,-3.2 -6.4,-3.2 h -1.8 c -0.7,0 -1.1,0.1 -1.1,0.4 z" />
	<path
   id="XMLID_108_"
   class="st0"
   d="m 670.3,314.9 h 3.9 c 3.3,0 5.8,1.8 7.6,5.3 3.7,-2 6.8,-3 9.4,-3 6.2,0 10.6,4 13.1,11.9 0.5,1.6 0.7,3.2 0.7,4.8 v 4.6 c 0,2.9 -1,4.4 -3,4.4 -1.2,0 -1.9,-0.9 -2.1,-2.8 h -0.2 l 0.2,-2.8 V 333 c -0.2,-5.9 -2.6,-9.6 -7.3,-11.2 h -1.4 c -1.6,0 -3.8,0.8 -6.7,2.3 v 0.5 c 2.4,1.5 3.7,3.7 3.7,6.9 0,6.3 -4.2,10.2 -12.6,11.5 l -3,0.2 c -9.7,0 -16.6,-5.5 -20.6,-16.5 v -0.2 c 0,-0.4 0.4,-0.8 1.1,-1.1 l 6.4,3.4 c 1.6,0.6 3.2,0.9 4.8,0.9 4.1,0 8.6,-2.3 13.5,-6.9 -0.8,-2.6 -2.1,-3.9 -3.7,-3.9 h -3 c 0.6,1 0.9,2 0.9,2.8 v 0.9 c 0,2.6 -2.1,4.2 -6.4,4.8 -4,-0.6 -6,-2.1 -6,-4.4 v -1.6 c 0,-3 2.8,-5.1 8.5,-6.2 z m -4.3,18.6 h -2.8 c -1.3,0 -2.3,-0.2 -3,-0.5 v 0.2 c 3.3,3.8 7.8,5.7 13.5,5.7 h 0.2 c 3.9,0 6.7,-1.5 8.5,-4.6 0.6,-1.3 0.9,-2.5 0.9,-3.7 v -0.2 c 0,-1.5 -0.6,-2.3 -1.8,-2.3 h -1.4 l -1.1,0.2 v -0.2 c -5.2,3.6 -9.5,5.4 -13,5.4 z m -1.4,-12.7 v 0.7 c 0,1.1 0.5,1.6 1.6,1.6 h 0.2 c 1.2,-0.2 1.8,-0.7 1.8,-1.6 l -0.9,-2.3 c -1.7,0.6 -2.6,1.2 -2.7,1.6 z" />
	<path
   id="XMLID_112_"
   class="st0"
   d="m 701.8,276.1 h 0.7 c 0.8,0 1.4,7.9 1.8,23.6 0,1.1 2.4,2.3 7.3,3.7 h 2.5 c 4.7,0 8.1,-2.2 10.1,-6.7 l 0.2,-1.4 c 0,-3.1 -1.4,-5 -4.1,-5.7 h -0.7 c 0.9,0.9 1.4,1.9 1.4,3 0,1.8 -1.5,3 -4.4,3.7 h -0.2 c -2.6,0 -4.1,-1.6 -4.6,-4.8 0.8,-4.3 2.7,-6.4 5.7,-6.4 h 0.7 c 4.5,0 7.7,2.6 9.6,7.8 l 0.2,1.8 v 2.1 c 0,5 -3.5,8.6 -10.5,11 l -2.3,0.2 H 714 c -3.1,0 -6.2,-0.8 -9.2,-2.5 v 0.2 l 0.9,20 -0.2,0.2 H 705 c -1.6,-0.9 -2.8,-1.8 -3.4,-2.5 l -0.5,-19.7 c 0,-0.5 -1.2,-2.2 -3.7,-5 -1.7,-3.4 -2.5,-6.5 -2.5,-9.2 0,-4.7 2.3,-9.2 6.9,-13.4 z m -1.6,9 c -0.8,1.7 -1.1,3.1 -1.1,4.4 v 1.1 c 0,1.4 0.5,3.2 1.6,5.5 h 0.2 l -0.2,-2.3 v -3 l -0.2,-5.7 z" />
</g>
</svg>
